<?xml version="1.0" encoding="utf-8"?>
<!-- Generator: Adobe Illustrator 27.9.0, SVG Export Plug-In . SVG Version: 6.00 Build 0)  -->
<svg version="1.1" id="Слой_1" xmlns="http://www.w3.org/2000/svg" xmlns:xlink="http://www.w3.org/1999/xlink" x="0px" y="0px"
	 viewBox="0 0 24 24" style="enable-background:new 0 0 24 24;" xml:space="preserve">
<style type="text/css">
	.st0{fill:#1D1D1B;}
</style>
<path id="Vector" class="st0" d="M15.4,21v-7h2.3l0.3-2.7h-2.7V9.6c0-0.8,0.2-1.3,1.3-1.3h1.4V5.9c-0.7-0.1-1.4-0.1-2.1-0.1
	c-2.1,0-3.5,1.3-3.5,3.6v2h-2.3V14h2.3v7H4c-0.3,0-0.5-0.1-0.7-0.3C3.1,20.5,3,20.3,3,20V4c0-0.3,0.1-0.5,0.3-0.7C3.5,3.1,3.7,3,4,3
	h16c0.3,0,0.5,0.1,0.7,0.3C20.9,3.5,21,3.7,21,4v16c0,0.3-0.1,0.5-0.3,0.7S20.3,21,20,21H15.4z"/>
</svg>
