<?xml version="1.0" encoding="utf-8"?>
<!-- Generator: Adobe Illustrator 27.9.0, SVG Export Plug-In . SVG Version: 6.00 Build 0)  -->
<svg version="1.1" id="Слой_1" xmlns="http://www.w3.org/2000/svg" xmlns:xlink="http://www.w3.org/1999/xlink" x="0px" y="0px"
	 viewBox="0 0 24 24" style="enable-background:new 0 0 24 24;" xml:space="preserve">
<style type="text/css">
	.st0{fill:#1D1D1B;}
</style>
<path id="Vector" class="st0" d="M12,2c2.7,0,3.1,0,4.1,0.1c1.1,0,1.8,0.2,2.4,0.5c0.7,0.3,1.2,0.6,1.8,1.2c0.5,0.5,0.9,1.1,1.2,1.8
	c0.2,0.6,0.4,1.4,0.5,2.4C22,8.9,22,9.3,22,12s0,3.1-0.1,4.1c-0.1,1.1-0.2,1.8-0.5,2.4c-0.3,0.7-0.6,1.3-1.2,1.8
	c-0.5,0.5-1.1,0.9-1.8,1.2c-0.6,0.2-1.4,0.4-2.4,0.5C15.1,22,14.7,22,12,22s-3.1,0-4.1-0.1c-1.1-0.1-1.8-0.2-2.4-0.5
	c-0.7-0.3-1.3-0.6-1.8-1.2c-0.5-0.5-0.9-1.1-1.2-1.8c-0.2-0.6-0.4-1.4-0.5-2.4C2,15.1,2,14.7,2,12s0-3.1,0.1-4.1s0.2-1.8,0.5-2.4
	c0.3-0.7,0.6-1.3,1.2-1.8c0.5-0.5,1.1-0.9,1.8-1.2c0.6-0.2,1.4-0.4,2.4-0.5C8.9,2,9.3,2,12,2z M12,7c-1.3,0-2.6,0.5-3.5,1.5
	C7.5,9.4,7,10.7,7,12s0.5,2.6,1.5,3.5C9.4,16.5,10.7,17,12,17s2.6-0.5,3.5-1.5c0.9-0.9,1.5-2.2,1.5-3.5s-0.5-2.6-1.5-3.5
	C14.6,7.5,13.3,7,12,7z M18.5,6.8c0-0.3-0.1-0.6-0.4-0.9c-0.2-0.2-0.6-0.4-0.9-0.4s-0.6,0.1-0.9,0.4C16.1,6.1,16,6.4,16,6.8
	s0.1,0.6,0.4,0.9C16.6,7.9,16.9,8,17.2,8s0.6-0.1,0.9-0.4C18.4,7.4,18.5,7.1,18.5,6.8z M12,9c0.8,0,1.6,0.3,2.1,0.9
	c0.6,0.6,0.9,1.3,0.9,2.1s-0.3,1.6-0.9,2.1S12.8,15,12,15s-1.6-0.3-2.1-0.9C9.3,13.6,9,12.8,9,12s0.3-1.6,0.9-2.1
	C10.4,9.3,11.2,9,12,9z"/>
</svg>
