<?xml version="1.0" encoding="utf-8"?>
<!-- Generator: Adobe Illustrator 27.9.0, SVG Export Plug-In . SVG Version: 6.00 Build 0)  -->
<svg version="1.1" id="Слой_1" xmlns="http://www.w3.org/2000/svg" xmlns:xlink="http://www.w3.org/1999/xlink" x="0px" y="0px"
	 viewBox="0 0 24 24" style="enable-background:new 0 0 24 24;" xml:space="preserve">
<style type="text/css">
	.st0{fill:#4C5866;}
</style>
<g id="log-in">
	<path class="st0" d="M19,22h-4c-0.6,0-1-0.4-1-1s0.4-1,1-1h4c0.3,0,0.5-0.1,0.7-0.3c0.2-0.2,0.3-0.4,0.3-0.7V5
		c0-0.3-0.1-0.5-0.3-0.7C19.5,4.1,19.3,4,19,4h-4c-0.6,0-1-0.4-1-1s0.4-1,1-1h4c0.8,0,1.6,0.3,2.1,0.9S22,4.2,22,5v14
		c0,0.8-0.3,1.6-0.9,2.1C20.6,21.7,19.8,22,19,22z"/>
	<path class="st0" d="M10,18c-0.3,0-0.5-0.1-0.7-0.3c-0.4-0.4-0.4-1,0-1.4l4.3-4.3L9.3,7.7c-0.4-0.4-0.4-1,0-1.4s1-0.4,1.4,0l5,5
		c0.2,0.2,0.3,0.4,0.3,0.7s-0.1,0.5-0.3,0.7l-5,5C10.5,17.9,10.3,18,10,18z"/>
	<path class="st0" d="M15,13H3c-0.6,0-1-0.4-1-1s0.4-1,1-1h12c0.6,0,1,0.4,1,1S15.6,13,15,13z"/>
</g>
</svg>
