<?xml version="1.0" encoding="utf-8"?>
<!-- Generator: Adobe Illustrator 27.9.0, SVG Export Plug-In . SVG Version: 6.00 Build 0)  -->
<svg version="1.1" id="Слой_1" xmlns="http://www.w3.org/2000/svg" xmlns:xlink="http://www.w3.org/1999/xlink" x="0px" y="0px"
	 viewBox="0 0 24 24" style="enable-background:new 0 0 24 24;" xml:space="preserve">
<style type="text/css">
	.st0{fill:#4C5866;}
</style>
<g id="search">
	<path class="st0" d="M13,20c-5,0-9-4-9-9s4-9,9-9c5,0,9,4,9,9S18,20,13,20z M13,4c-3.9,0-7,3.1-7,7s3.1,7,7,7c3.9,0,7-3.1,7-7
		S16.9,4,13,4z"/>
	<path class="st0" d="M3,22c-0.3,0-0.5-0.1-0.7-0.3c-0.4-0.4-0.4-1,0-1.4l4.4-4.3c0.4-0.4,1-0.4,1.4,0c0.4,0.4,0.4,1,0,1.4l-4.4,4.3
		C3.5,21.9,3.3,22,3,22z"/>
</g>
</svg>
