<?xml version="1.0" encoding="utf-8"?>
<!-- Generator: Adobe Illustrator 27.9.0, SVG Export Plug-In . SVG Version: 6.00 Build 0)  -->
<svg version="1.1" id="Слой_1" xmlns="http://www.w3.org/2000/svg" xmlns:xlink="http://www.w3.org/1999/xlink" x="0px" y="0px"
	 viewBox="0 0 24 24" style="enable-background:new 0 0 24 24;" xml:space="preserve">
<style type="text/css">
	.st0{fill:#1D1D1B;}
</style>
<path id="Vector" class="st0" d="M22.2,5.7c-0.8,0.3-1.6,0.6-2.4,0.7C20.7,5.8,21.3,5,21.6,4c-0.8,0.5-1.7,0.8-2.7,1
	c-0.6-0.7-1.5-1.1-2.4-1.3c-0.9-0.2-1.8,0-2.7,0.4c-0.8,0.4-1.5,1.1-1.8,2S11.6,8,11.8,8.9c-1.7-0.1-3.3-0.5-4.8-1.3
	C5.6,6.8,4.3,5.8,3.2,4.5C2.9,5.1,2.7,5.8,2.7,6.6c0,1.5,0.7,2.7,1.9,3.5c-0.7,0-1.3-0.2-1.9-0.5v0.1c0,1,0.3,1.9,0.9,2.6
	C4.2,13,5,13.5,6,13.7c-0.6,0.2-1.3,0.2-1.9,0.1c0.3,0.8,0.8,1.6,1.5,2.1c0.7,0.5,1.5,0.8,2.4,0.8c-0.9,0.7-1.9,1.2-2.9,1.5
	c-1.1,0.3-2.2,0.4-3.3,0.2c1.9,1.2,4.1,1.9,6.4,1.9c7.7,0,11.9-6.4,11.9-11.9c0-0.2,0-0.4,0-0.5C20.9,7.3,21.6,6.5,22.2,5.7
	L22.2,5.7z"/>
</svg>
