<?xml version="1.0" encoding="utf-8"?>
<!-- Generator: Adobe Illustrator 27.9.0, SVG Export Plug-In . SVG Version: 6.00 Build 0)  -->
<svg version="1.1" id="Слой_1" xmlns="http://www.w3.org/2000/svg" xmlns:xlink="http://www.w3.org/1999/xlink" x="0px" y="0px"
	 viewBox="0 0 24 24" style="enable-background:new 0 0 24 24;" xml:space="preserve">
<style type="text/css">
	.st0{fill:#1D1D1B;}
</style>
<path id="Vector" class="st0" d="M21.5,6.5C22,8.3,22,12,22,12s0,3.7-0.5,5.5c-0.3,1-1,1.8-1.9,2C17.9,20,12,20,12,20
	s-5.9,0-7.6-0.5c-0.9-0.3-1.7-1-1.9-2C2,15.7,2,12,2,12s0-3.7,0.5-5.5c0.3-1,1-1.8,1.9-2C6.1,4,12,4,12,4s5.9,0,7.6,0.5
	C20.5,4.7,21.3,5.5,21.5,6.5z M10,15.5l6-3.5l-6-3.5V15.5z"/>
</svg>
