<?xml version="1.0" encoding="utf-8"?>
<!-- Generator: Adobe Illustrator 27.9.0, SVG Export Plug-In . SVG Version: 6.00 Build 0)  -->
<svg version="1.1" id="Слой_1" xmlns="http://www.w3.org/2000/svg" xmlns:xlink="http://www.w3.org/1999/xlink" x="0px" y="0px"
	 viewBox="0 0 140 23" style="enable-background:new 0 0 140 23;" xml:space="preserve">
<style type="text/css">
	.st0{fill:#333333;}
</style>
<path class="st0" d="M8.5,19.5C3.8,19.5,0,15.7,0,11s3.8-8.5,8.5-8.5S17,6.3,17,11S13.2,19.5,8.5,19.5z M8.5,3.5C4.4,3.5,1,6.9,1,11
	c0,4.1,3.4,7.5,7.5,7.5S16,15.1,16,11C16,6.9,12.6,3.5,8.5,3.5z"/>
<path class="st0" d="M25.8,17.6c0.7,0,1.4-0.1,1.8-0.4c0.5-0.3,0.7-0.7,0.7-1.3c0-0.3,0-0.5-0.1-0.7c-0.1-0.2-0.2-0.4-0.4-0.5
	c-0.2-0.2-0.5-0.3-0.8-0.5c-0.3-0.1-0.7-0.3-1.2-0.5c-0.4-0.2-0.8-0.3-1.1-0.5c-0.3-0.2-0.7-0.4-0.9-0.6c-0.3-0.2-0.5-0.5-0.6-0.8
	C23,11.6,23,11.2,23,10.7c0-0.8,0.3-1.5,0.9-2c0.6-0.5,1.5-0.8,2.6-0.8c0.7,0,1.3,0.1,1.7,0.2c0.5,0.1,0.8,0.2,1,0.3l-0.3,1.2
	c-0.2-0.1-0.4-0.2-0.8-0.3c-0.4-0.1-0.9-0.2-1.7-0.2c-0.3,0-0.6,0-0.8,0.1c-0.3,0.1-0.5,0.1-0.7,0.3c-0.2,0.1-0.4,0.3-0.5,0.5
	c-0.1,0.2-0.2,0.4-0.2,0.7s0.1,0.5,0.2,0.7c0.1,0.2,0.3,0.4,0.5,0.5c0.2,0.1,0.5,0.3,0.8,0.4c0.3,0.1,0.7,0.3,1,0.4
	c0.4,0.2,0.8,0.3,1.1,0.5c0.4,0.2,0.7,0.4,1,0.6c0.3,0.2,0.5,0.5,0.7,0.8c0.2,0.3,0.3,0.7,0.3,1.2c0,0.9-0.4,1.6-1.1,2.1
	c-0.7,0.5-1.6,0.7-2.9,0.7c-0.9,0-1.6-0.1-2.1-0.2c-0.5-0.1-0.8-0.3-1-0.3l0.3-1.2c0,0,0.1,0.1,0.3,0.1c0.1,0.1,0.3,0.1,0.5,0.2
	c0.2,0.1,0.5,0.1,0.8,0.2C25.1,17.6,25.4,17.6,25.8,17.6z M33.6,18.5h-1.3V8.2h1.3V18.5z M33.9,5c0,0.3-0.1,0.6-0.3,0.7
	C33.4,6,33.2,6,32.9,6S32.4,6,32.2,5.8C32,5.6,32,5.3,32,5s0.1-0.5,0.3-0.7C32.4,4.1,32.6,4,32.9,4s0.5,0.1,0.7,0.3
	C33.8,4.5,33.9,4.7,33.9,5z M37,8.5c0.4-0.1,0.9-0.2,1.5-0.4C39.1,8,40,8,40.9,8c1.3,0,2.3,0.4,2.8,1.1C43.8,9,44,9,44.2,8.8
	c0.2-0.1,0.4-0.3,0.7-0.4c0.3-0.1,0.6-0.2,1-0.3C46.3,8,46.8,8,47.2,8c0.8,0,1.4,0.1,1.9,0.4c0.5,0.2,0.9,0.6,1.1,1
	c0.3,0.4,0.4,0.9,0.5,1.5c0.1,0.6,0.1,1.2,0.1,1.9v5.8h-1.3v-5.4c0-0.7,0-1.3-0.1-1.8c-0.1-0.5-0.2-0.9-0.4-1.2
	c-0.2-0.3-0.4-0.6-0.8-0.7c-0.3-0.2-0.8-0.3-1.3-0.3c-0.4,0-0.8,0-1.1,0.1c-0.3,0.1-0.6,0.2-0.8,0.3c-0.2,0.1-0.4,0.2-0.6,0.3
	c-0.1,0.1-0.3,0.2-0.3,0.2c0.1,0.3,0.2,0.7,0.3,1.2c0.1,0.4,0.1,0.9,0.1,1.4v5.9h-1.3v-5.4c0-0.7,0-1.3-0.1-1.8
	c-0.1-0.5-0.2-0.9-0.4-1.2c-0.2-0.3-0.5-0.6-0.8-0.7c-0.3-0.2-0.8-0.3-1.3-0.3c-0.6,0-1.2,0-1.6,0.1c-0.4,0.1-0.7,0.1-0.8,0.2v9.1
	H37V8.5z M55.6,16.6c0.1,0.1,0.3,0.2,0.4,0.3c0.2,0.1,0.4,0.2,0.6,0.3c0.2,0.1,0.5,0.2,0.8,0.2c0.3,0.1,0.6,0.1,0.9,0.1
	c0.6,0,1.2-0.1,1.6-0.3c0.4-0.2,0.8-0.5,1.1-0.9c0.3-0.4,0.5-0.8,0.6-1.3c0.1-0.5,0.2-1.1,0.2-1.6c0-1.4-0.3-2.4-1-3.1
	C60,9.5,59.1,9.1,58,9.1c-0.6,0-1.2,0-1.6,0.1c-0.4,0.1-0.7,0.1-0.9,0.2V16.6z M55.6,22.2h-1.3V8.5c0.4-0.1,0.9-0.3,1.5-0.4
	C56.4,8,57.1,8,58,8c0.8,0,1.4,0.1,2.1,0.4c0.6,0.2,1.2,0.6,1.6,1.1c0.5,0.5,0.8,1,1,1.7c0.3,0.7,0.4,1.4,0.4,2.3
	c0,0.8-0.1,1.5-0.3,2.2c-0.2,0.7-0.5,1.2-0.9,1.7c-0.4,0.5-0.9,0.8-1.5,1.1c-0.6,0.3-1.2,0.4-2,0.4c-0.7,0-1.3-0.1-1.8-0.3
	c-0.5-0.2-0.9-0.4-1.1-0.6V22.2z M68.6,18.7c-0.4,0-0.8-0.1-1.2-0.2c-0.3-0.1-0.6-0.2-0.8-0.4c-0.2-0.2-0.4-0.5-0.5-0.8
	c-0.1-0.3-0.2-0.7-0.2-1.2V3.2L67.2,3v13c0,0.3,0,0.6,0.1,0.8c0.1,0.2,0.2,0.3,0.3,0.5c0.1,0.1,0.3,0.2,0.5,0.2
	c0.2,0.1,0.4,0.1,0.7,0.1L68.6,18.7z M70.4,13.3c0-0.9,0.1-1.7,0.4-2.4c0.3-0.7,0.6-1.2,1-1.7c0.4-0.5,0.9-0.8,1.4-1
	c0.5-0.2,1.1-0.3,1.7-0.3c1.3,0,2.3,0.4,3,1.2c0.8,0.8,1.1,2.1,1.1,3.8c0,0.1,0,0.2,0,0.3c0,0.1,0,0.2,0,0.3h-7.3
	c0,1.3,0.4,2.2,0.9,2.9c0.6,0.7,1.5,1,2.8,1c0.7,0,1.3-0.1,1.7-0.2c0.4-0.1,0.7-0.2,0.9-0.3l0.2,1.1c-0.2,0.1-0.5,0.2-1.1,0.4
	c-0.5,0.1-1.1,0.2-1.8,0.2c-0.9,0-1.7-0.1-2.3-0.4c-0.6-0.3-1.2-0.6-1.6-1.1c-0.4-0.5-0.7-1-0.9-1.7C70.5,14.8,70.4,14.1,70.4,13.3z
	 M77.8,12.5c0-1.1-0.3-1.9-0.8-2.5c-0.5-0.6-1.2-0.9-2-0.9c-0.5,0-0.9,0.1-1.3,0.3c-0.4,0.2-0.7,0.4-1,0.8c-0.3,0.3-0.5,0.7-0.6,1.1
	c-0.1,0.4-0.2,0.8-0.3,1.3H77.8z"/>
<path class="st0" d="M109.5,19.5h-15c-4.7,0-8.5-3.8-8.5-8.5s3.8-8.5,8.5-8.5h15c4.7,0,8.5,3.8,8.5,8.5S114.2,19.5,109.5,19.5z
	 M94.5,3.5C90.4,3.5,87,6.9,87,11c0,4.1,3.4,7.5,7.5,7.5h15c4.1,0,7.5-3.4,7.5-7.5c0-4.1-3.4-7.5-7.5-7.5H94.5z"/>
<path class="st0" d="M131.5,19.5c-4.7,0-8.5-3.8-8.5-8.5s3.8-8.5,8.5-8.5S140,6.3,140,11S136.2,19.5,131.5,19.5z M131.5,3.5
	c-4.1,0-7.5,3.4-7.5,7.5c0,4.1,3.4,7.5,7.5,7.5s7.5-3.4,7.5-7.5C139,6.9,135.6,3.5,131.5,3.5z"/>
</svg>
